<svg width="105" height="106" viewBox="0 0 105 106" fill="none" xmlns="http://www.w3.org/2000/svg">
<g filter="url(#filter0_d)">
<path d="M52.6304 22.373C42.1537 22.373 33.6304 31.1207 33.6304 41.873C33.6304 52.6254 42.1537 61.373 52.6304 61.373C63.1071 61.373 71.6304 52.6254 71.6304 41.873C71.6304 31.1207 63.1071 22.373 52.6304 22.373ZM65.0119 31.5697C67.1449 34.2644 68.4581 37.6657 68.5673 41.3733C64.6161 40.5338 61.0383 40.6324 57.8799 41.2679C57.308 39.8953 56.716 38.5876 56.1185 37.3517C59.5582 35.8309 62.5527 33.8885 65.0119 31.5697ZM62.8716 29.3371C60.4305 31.624 57.6015 33.3172 54.7048 34.5673C52.5787 30.577 50.5445 27.5721 49.3054 25.8645C50.3784 25.6299 51.4902 25.504 52.6304 25.504C56.5264 25.504 60.0987 26.9472 62.8716 29.3371ZM46.2242 26.887C47.16 28.1315 49.3888 31.2474 51.7829 35.6806C45.7658 37.6926 39.9273 38.0316 37.1217 38.0631C38.2911 33.0494 41.7121 28.9268 46.2242 26.887ZM36.6977 41.202C36.7278 41.202 36.7569 41.2022 36.7876 41.2022C38.7262 41.2022 42.2779 41.0684 46.4593 40.2859C48.8449 39.8394 51.1071 39.2385 53.2297 38.4937C53.7823 39.624 54.3316 40.8162 54.8643 42.0659C51.8921 43.048 49.3857 44.4611 47.4004 45.8642C44.0711 48.2172 41.7388 50.8278 40.4652 52.4419C38.1073 49.5879 36.681 45.8992 36.681 41.873C36.681 41.648 36.6887 41.4249 36.6977 41.202ZM42.6635 54.6388C43.7599 53.2219 45.9916 50.6431 49.2198 48.3802C51.4136 46.8423 53.6832 45.6997 56.0198 44.9497C57.3755 48.5562 58.533 52.541 59.223 56.7722C57.212 57.7132 54.981 58.2421 52.6304 58.2421C48.8614 58.2421 45.3961 56.8906 42.6635 54.6388ZM62.0296 55.0863C61.3184 51.2004 60.2578 47.5465 59.0316 44.2073C62.0477 43.685 65.1648 43.7927 68.3664 44.5308C67.6759 48.8494 65.3345 52.6032 62.0296 55.0863Z" fill="url(#paint0_linear)"/>
</g>
<defs>
<filter id="filter0_d" x="0.630371" y="0.373047" width="104" height="105" filterUnits="userSpaceOnUse" color-interpolation-filters="sRGB">
<feFlood flood-opacity="0" result="BackgroundImageFix"/>
<feColorMatrix in="SourceAlpha" type="matrix" values="0 0 0 0 0 0 0 0 0 0 0 0 0 0 0 0 0 0 127 0"/>
<feOffset dy="11"/>
<feGaussianBlur stdDeviation="16.5"/>
<feColorMatrix type="matrix" values="0 0 0 0 0 0 0 0 0 1 0 0 0 0 0.58 0 0 0 0.33 0"/>
<feBlend mode="normal" in2="BackgroundImageFix" result="effect1_dropShadow"/>
<feBlend mode="normal" in="SourceGraphic" in2="effect1_dropShadow" result="shape"/>
</filter>
<linearGradient id="paint0_linear" x1="52.6304" y1="22.373" x2="52.6304" y2="61.373" gradientUnits="userSpaceOnUse">
<stop stop-color="#00FF94"/>
<stop offset="1" stop-color="#10D28C"/>
</linearGradient>
</defs>
</svg>
