<svg width="108" height="107" viewBox="0 0 108 107" fill="none" xmlns="http://www.w3.org/2000/svg">
<g filter="url(#filter0_d)">
<path d="M62.2151 22H45.7559C39.0668 22 33.6248 27.442 33.6248 34.1312V50.5903C33.6248 57.2795 39.0668 62.7215 45.7559 62.7215H62.2151C68.9043 62.7215 74.3463 57.2795 74.3463 50.5903V34.1312C74.3462 27.442 68.9042 22 62.2151 22ZM70.2497 50.5903C70.2497 55.0277 66.6524 58.6249 62.2151 58.6249H45.7559C41.3186 58.6249 37.7213 55.0277 37.7213 50.5903V34.1312C37.7213 29.6937 41.3186 26.0966 45.7559 26.0966H62.2151C66.6524 26.0966 70.2497 29.6937 70.2497 34.1312V50.5903Z" fill="url(#paint0_linear)"/>
<path d="M53.9856 31.8286C48.1782 31.8286 43.4536 36.5533 43.4536 42.3606C43.4536 48.1679 48.1782 52.8926 53.9856 52.8926C59.793 52.8926 64.5176 48.1679 64.5176 42.3606C64.5176 36.5532 59.793 31.8286 53.9856 31.8286ZM53.9856 48.7961C50.4314 48.7961 47.5501 45.9149 47.5501 42.3606C47.5501 38.8064 50.4314 35.9252 53.9856 35.9252C57.5398 35.9252 60.421 38.8064 60.421 42.3606C60.421 45.9148 57.5397 48.7961 53.9856 48.7961Z" fill="url(#paint1_linear)"/>
<path d="M64.538 34.4315C65.9318 34.4315 67.0617 33.3016 67.0617 31.9078C67.0617 30.5141 65.9318 29.3842 64.538 29.3842C63.1442 29.3842 62.0143 30.5141 62.0143 31.9078C62.0143 33.3016 63.1442 34.4315 64.538 34.4315Z" fill="url(#paint2_linear)"/>
</g>
<defs>
<filter id="filter0_d" x="0.624756" y="0" width="106.722" height="106.722" filterUnits="userSpaceOnUse" color-interpolation-filters="sRGB">
<feFlood flood-opacity="0" result="BackgroundImageFix"/>
<feColorMatrix in="SourceAlpha" type="matrix" values="0 0 0 0 0 0 0 0 0 0 0 0 0 0 0 0 0 0 127 0"/>
<feOffset dy="11"/>
<feGaussianBlur stdDeviation="16.5"/>
<feColorMatrix type="matrix" values="0 0 0 0 0 0 0 0 0 1 0 0 0 0 0.58 0 0 0 0.33 0"/>
<feBlend mode="normal" in2="BackgroundImageFix" result="effect1_dropShadow"/>
<feBlend mode="normal" in="SourceGraphic" in2="effect1_dropShadow" result="shape"/>
</filter>
<linearGradient id="paint0_linear" x1="53.9855" y1="22" x2="53.9855" y2="62.7215" gradientUnits="userSpaceOnUse">
<stop stop-color="#00FF94"/>
<stop offset="1" stop-color="#10D28C"/>
</linearGradient>
<linearGradient id="paint1_linear" x1="53.9856" y1="31.8286" x2="53.9856" y2="52.8926" gradientUnits="userSpaceOnUse">
<stop stop-color="#00FF94"/>
<stop offset="1" stop-color="#10D28C"/>
</linearGradient>
<linearGradient id="paint2_linear" x1="64.538" y1="29.3842" x2="64.538" y2="34.4315" gradientUnits="userSpaceOnUse">
<stop stop-color="#00FF94"/>
<stop offset="1" stop-color="#10D28C"/>
</linearGradient>
</defs>
</svg>
