<svg width="384" height="370" viewBox="0 0 384 370" fill="none" xmlns="http://www.w3.org/2000/svg">
<g opacity="0.35">
<line y1="52.6448" x2="383.391" y2="52.6448" stroke="#00FF94" stroke-opacity="0.84" stroke-width="0.3"/>
<line y1="35.0468" x2="383.391" y2="35.0468" stroke="#00FF94" stroke-opacity="0.84" stroke-width="0.3"/>
<line y1="17.4485" x2="383.391" y2="17.4485" stroke="#00FF94" stroke-opacity="0.84" stroke-width="0.3"/>
<line y1="123.038" x2="383.391" y2="123.038" stroke="#00FF94" stroke-opacity="0.84" stroke-width="0.3"/>
<line y1="105.44" x2="383.391" y2="105.44" stroke="#00FF94" stroke-opacity="0.84" stroke-width="0.3"/>
<line y1="87.8413" x2="383.391" y2="87.8413" stroke="#00FF94" stroke-opacity="0.84" stroke-width="0.3"/>
<line y1="70.2431" x2="383.391" y2="70.2431" stroke="#00FF94" stroke-opacity="0.84" stroke-width="0.3"/>
<line x1="1.52588e-05" y1="193.431" x2="383.391" y2="193.431" stroke="#00FF94" stroke-opacity="0.84" stroke-width="0.3"/>
<line x1="1.52588e-05" y1="175.833" x2="383.391" y2="175.833" stroke="#00FF94" stroke-opacity="0.84" stroke-width="0.3"/>
<line x1="1.52588e-05" y1="158.235" x2="383.391" y2="158.235" stroke="#00FF94" stroke-opacity="0.84" stroke-width="0.3"/>
<line x1="1.52588e-05" y1="140.637" x2="383.391" y2="140.637" stroke="#00FF94" stroke-opacity="0.84" stroke-width="0.3"/>
<line x1="1.52588e-05" y1="263.824" x2="383.391" y2="263.824" stroke="#00FF94" stroke-opacity="0.84" stroke-width="0.3"/>
<line x1="1.52588e-05" y1="246.226" x2="383.391" y2="246.226" stroke="#00FF94" stroke-opacity="0.84" stroke-width="0.3"/>
<line x1="1.52588e-05" y1="228.628" x2="383.391" y2="228.628" stroke="#00FF94" stroke-opacity="0.84" stroke-width="0.3"/>
<line x1="1.52588e-05" y1="211.03" x2="383.391" y2="211.03" stroke="#00FF94" stroke-opacity="0.84" stroke-width="0.3"/>
<line x1="1.52588e-05" y1="334.218" x2="383.391" y2="334.218" stroke="#00FF94" stroke-opacity="0.84" stroke-width="0.3"/>
<line x1="1.52588e-05" y1="316.619" x2="383.391" y2="316.619" stroke="#00FF94" stroke-opacity="0.84" stroke-width="0.3"/>
<line x1="1.52588e-05" y1="299.021" x2="383.391" y2="299.021" stroke="#00FF94" stroke-opacity="0.84" stroke-width="0.3"/>
<line x1="1.52588e-05" y1="281.423" x2="383.391" y2="281.423" stroke="#00FF94" stroke-opacity="0.84" stroke-width="0.3"/>
<line x1="1.52588e-05" y1="369.414" x2="383.391" y2="369.414" stroke="#00FF94" stroke-opacity="0.84" stroke-width="0.3"/>
<line x1="1.52588e-05" y1="351.816" x2="383.391" y2="351.816" stroke="#00FF94" stroke-opacity="0.84" stroke-width="0.3"/>
<line x1="52.6449" y1="369.006" x2="52.6448" y2="6.10417e-05" stroke="#00FF94" stroke-opacity="0.84" stroke-width="0.3"/>
<line x1="35.0466" y1="369.006" x2="35.0466" y2="-6.10286e-05" stroke="#00FF94" stroke-opacity="0.84" stroke-width="0.3"/>
<line x1="17.4483" y1="369.006" x2="17.4483" y2="6.10417e-05" stroke="#00FF94" stroke-opacity="0.84" stroke-width="0.3"/>
<line x1="121.781" y1="369.006" x2="121.781" y2="6.10417e-05" stroke="#00FF94" stroke-opacity="0.84" stroke-width="0.3"/>
<line x1="104.183" y1="369.006" x2="104.183" y2="-6.10286e-05" stroke="#00FF94" stroke-opacity="0.84" stroke-width="0.3"/>
<line x1="86.5844" y1="369.006" x2="86.5844" y2="6.10417e-05" stroke="#00FF94" stroke-opacity="0.84" stroke-width="0.3"/>
<line x1="68.9861" y1="369.006" x2="68.9861" y2="6.10417e-05" stroke="#00FF94" stroke-opacity="0.84" stroke-width="0.3"/>
<line x1="192.174" y1="369.006" x2="192.174" y2="-6.10288e-05" stroke="#00FF94" stroke-opacity="0.84" stroke-width="0.3"/>
<line x1="174.576" y1="369.005" x2="174.576" y2="-0.000183099" stroke="#00FF94" stroke-opacity="0.84" stroke-width="0.3"/>
<line x1="156.978" y1="369.006" x2="156.978" y2="-6.10288e-05" stroke="#00FF94" stroke-opacity="0.84" stroke-width="0.3"/>
<line x1="139.379" y1="369.006" x2="139.379" y2="-6.10288e-05" stroke="#00FF94" stroke-opacity="0.84" stroke-width="0.3"/>
<line x1="261.31" y1="369.006" x2="261.31" y2="-6.10288e-05" stroke="#00FF94" stroke-opacity="0.84" stroke-width="0.3"/>
<line x1="243.712" y1="369.005" x2="243.712" y2="-0.000183099" stroke="#00FF94" stroke-opacity="0.84" stroke-width="0.3"/>
<line x1="226.114" y1="369.006" x2="226.114" y2="-6.10288e-05" stroke="#00FF94" stroke-opacity="0.84" stroke-width="0.3"/>
<line x1="208.515" y1="369.006" x2="208.515" y2="-6.10288e-05" stroke="#00FF94" stroke-opacity="0.84" stroke-width="0.3"/>
<line x1="331.703" y1="369.006" x2="331.703" y2="-6.10288e-05" stroke="#00FF94" stroke-opacity="0.84" stroke-width="0.3"/>
<line x1="314.105" y1="369.005" x2="314.105" y2="-0.000183099" stroke="#00FF94" stroke-opacity="0.84" stroke-width="0.3"/>
<line x1="296.507" y1="369.006" x2="296.507" y2="-6.10288e-05" stroke="#00FF94" stroke-opacity="0.84" stroke-width="0.3"/>
<line x1="278.909" y1="369.006" x2="278.908" y2="-6.10288e-05" stroke="#00FF94" stroke-opacity="0.84" stroke-width="0.3"/>
<line x1="365.643" y1="369.006" x2="365.643" y2="-6.10288e-05" stroke="#00FF94" stroke-opacity="0.84" stroke-width="0.3"/>
<line x1="348.045" y1="369.006" x2="348.045" y2="-6.10288e-05" stroke="#00FF94" stroke-opacity="0.84" stroke-width="0.3"/>
</g>
</svg>
