<svg width="105" height="105" viewBox="0 0 105 105" fill="none" xmlns="http://www.w3.org/2000/svg">
<g filter="url(#filter0_d)">
<path d="M67.9985 22H36.8887C34.7499 22 33 23.7499 33 25.8887V56.9985C33 59.1373 34.7499 60.8872 36.8887 60.8872H67.9985C70.1373 60.8872 71.8872 59.1373 71.8872 56.9985V25.8887C71.8872 23.7499 70.1373 22 67.9985 22ZM44.6662 55.0541H38.8331V37.5549H44.6662V55.0541ZM41.7496 34.2495C39.8053 34.2495 38.2498 32.694 38.2498 30.7496C38.2498 28.8053 39.8053 27.2498 41.7496 27.2498C43.694 27.2498 45.2495 28.8053 45.2495 30.7496C45.2495 32.694 43.694 34.2495 41.7496 34.2495ZM66.0541 55.0541H60.221V44.749C60.221 43.1936 58.86 41.8325 57.3045 41.8325C55.749 41.8325 54.388 43.1936 54.388 44.749V55.0541H48.5549V37.5549H54.388V39.8881C55.3601 38.3326 57.4989 37.166 59.2489 37.166C62.9431 37.166 66.0541 40.277 66.0541 43.9713V55.0541Z" fill="url(#paint0_linear)"/>
</g>
<defs>
<filter id="filter0_d" x="0" y="0" width="104.887" height="104.887" filterUnits="userSpaceOnUse" color-interpolation-filters="sRGB">
<feFlood flood-opacity="0" result="BackgroundImageFix"/>
<feColorMatrix in="SourceAlpha" type="matrix" values="0 0 0 0 0 0 0 0 0 0 0 0 0 0 0 0 0 0 127 0"/>
<feOffset dy="11"/>
<feGaussianBlur stdDeviation="16.5"/>
<feColorMatrix type="matrix" values="0 0 0 0 0 0 0 0 0 1 0 0 0 0 0.58 0 0 0 0.33 0"/>
<feBlend mode="normal" in2="BackgroundImageFix" result="effect1_dropShadow"/>
<feBlend mode="normal" in="SourceGraphic" in2="effect1_dropShadow" result="shape"/>
</filter>
<linearGradient id="paint0_linear" x1="52.4436" y1="22" x2="52.4436" y2="60.8872" gradientUnits="userSpaceOnUse">
<stop stop-color="#00FF94"/>
<stop offset="1" stop-color="#10D28C"/>
</linearGradient>
</defs>
</svg>
