<svg width="95" height="89" viewBox="0 0 95 89" fill="none" xmlns="http://www.w3.org/2000/svg">
<g filter="url(#filter0_d)">
<path d="M35.7058 28.8274C36.0624 29.0791 37.1373 29.8265 38.9307 31.0692C40.7241 32.3119 42.0979 33.2688 43.0523 33.9399C43.1572 34.0134 43.38 34.1733 43.7208 34.4198C44.0616 34.6664 44.3448 34.8657 44.5702 35.0177C44.7957 35.1697 45.0684 35.3402 45.3884 35.5289C45.7083 35.7174 46.0099 35.8593 46.293 35.9532C46.5762 36.0478 46.8384 36.0947 47.0796 36.0947H47.0954H47.1113C47.3524 36.0947 47.6147 36.0478 47.8979 35.9532C48.181 35.8593 48.4828 35.7173 48.8024 35.5289C49.1222 35.34 49.3949 35.1696 49.6204 35.0177C49.8459 34.8657 50.1289 34.6664 50.4699 34.4198C50.8106 34.1731 51.0337 34.0134 51.1385 33.9399C52.1032 33.2688 54.5576 31.5645 58.5008 28.8271C59.2663 28.2925 59.9059 27.6473 60.4197 26.8922C60.9339 26.1374 61.1908 25.3455 61.1908 24.5171C61.1908 23.8248 60.9415 23.2322 60.4433 22.7393C59.9452 22.2464 59.3552 22 58.6737 22H35.5169C34.7094 22 34.088 22.2726 33.6528 22.8179C33.2176 23.3633 33 24.045 33 24.863C33 25.5237 33.2885 26.2396 33.8652 27.0104C34.4419 27.7813 35.0556 28.387 35.7058 28.8274Z" fill="url(#paint0_linear)"/>
<path d="M59.6175 30.5105C56.1779 32.8386 53.5662 34.6479 51.7835 35.938C51.1857 36.3783 50.7008 36.722 50.3284 36.9683C49.956 37.2148 49.4607 37.4665 48.8418 37.7233C48.2231 37.9805 47.6465 38.1087 47.1116 38.1087H47.0955H47.0797C46.5449 38.1087 45.968 37.9805 45.3493 37.7233C44.7306 37.4665 44.235 37.2148 43.8627 36.9683C43.4905 36.722 43.0054 36.3783 42.4076 35.938C40.9917 34.8998 38.3856 33.0904 34.5891 30.5105C33.9912 30.1123 33.4616 29.6558 33.0001 29.142V41.6324C33.0001 42.325 33.2464 42.9173 33.7394 43.4102C34.2323 43.9033 34.825 44.1498 35.5172 44.1498H58.674C59.366 44.1498 59.9587 43.9033 60.4516 43.4102C60.9447 42.9171 61.1909 42.3251 61.1909 41.6324V29.142C60.7399 29.6451 60.2156 30.1017 59.6175 30.5105Z" fill="url(#paint1_linear)"/>
</g>
<defs>
<filter id="filter0_d" x="0" y="0" width="94.1909" height="88.1498" filterUnits="userSpaceOnUse" color-interpolation-filters="sRGB">
<feFlood flood-opacity="0" result="BackgroundImageFix"/>
<feColorMatrix in="SourceAlpha" type="matrix" values="0 0 0 0 0 0 0 0 0 0 0 0 0 0 0 0 0 0 127 0"/>
<feOffset dy="11"/>
<feGaussianBlur stdDeviation="16.5"/>
<feColorMatrix type="matrix" values="0 0 0 0 0 0 0 0 0 1 0 0 0 0 0.58 0 0 0 0.33 0"/>
<feBlend mode="normal" in2="BackgroundImageFix" result="effect1_dropShadow"/>
<feBlend mode="normal" in="SourceGraphic" in2="effect1_dropShadow" result="shape"/>
</filter>
<linearGradient id="paint0_linear" x1="47.0954" y1="22" x2="47.0954" y2="36.0947" gradientUnits="userSpaceOnUse">
<stop stop-color="#00FF94"/>
<stop offset="1" stop-color="#10D28C"/>
</linearGradient>
<linearGradient id="paint1_linear" x1="47.0955" y1="29.142" x2="47.0955" y2="44.1498" gradientUnits="userSpaceOnUse">
<stop stop-color="#00FF94"/>
<stop offset="1" stop-color="#10D28C"/>
</linearGradient>
</defs>
</svg>
