<svg width="402" height="388" viewBox="0 0 402 388" fill="none" xmlns="http://www.w3.org/2000/svg">
<g opacity="0.35" filter="url(#filter0_d)">
<line x1="9" y1="57.5448" x2="392.391" y2="57.5448" stroke="#00FF94" stroke-opacity="0.5" stroke-width="0.5"/>
<line x1="9" y1="39.9468" x2="392.391" y2="39.9468" stroke="#00FF94" stroke-opacity="0.5" stroke-width="0.5"/>
<line x1="9" y1="22.3485" x2="392.391" y2="22.3485" stroke="#00FF94" stroke-opacity="0.5" stroke-width="0.5"/>
<line x1="9" y1="127.938" x2="392.391" y2="127.938" stroke="#00FF94" stroke-opacity="0.5" stroke-width="0.5"/>
<line x1="9" y1="110.34" x2="392.391" y2="110.34" stroke="#00FF94" stroke-opacity="0.5" stroke-width="0.5"/>
<line x1="9" y1="92.7413" x2="392.391" y2="92.7413" stroke="#00FF94" stroke-opacity="0.5" stroke-width="0.5"/>
<line x1="9" y1="75.1431" x2="392.391" y2="75.1431" stroke="#00FF94" stroke-opacity="0.5" stroke-width="0.5"/>
<line x1="9.00002" y1="198.331" x2="392.391" y2="198.331" stroke="#00FF94" stroke-opacity="0.5" stroke-width="0.5"/>
<line x1="9.00002" y1="180.733" x2="392.391" y2="180.733" stroke="#00FF94" stroke-opacity="0.5" stroke-width="0.5"/>
<line x1="9.00002" y1="163.135" x2="392.391" y2="163.135" stroke="#00FF94" stroke-opacity="0.5" stroke-width="0.5"/>
<line x1="9.00002" y1="145.537" x2="392.391" y2="145.537" stroke="#00FF94" stroke-opacity="0.5" stroke-width="0.5"/>
<line x1="9.00002" y1="268.724" x2="392.391" y2="268.724" stroke="#00FF94" stroke-opacity="0.5" stroke-width="0.5"/>
<line x1="9.00002" y1="251.126" x2="392.391" y2="251.126" stroke="#00FF94" stroke-opacity="0.5" stroke-width="0.5"/>
<line x1="9.00002" y1="233.528" x2="392.391" y2="233.528" stroke="#00FF94" stroke-opacity="0.5" stroke-width="0.5"/>
<line x1="9.00002" y1="215.93" x2="392.391" y2="215.93" stroke="#00FF94" stroke-opacity="0.5" stroke-width="0.5"/>
<line x1="9.00002" y1="339.118" x2="392.391" y2="339.118" stroke="#00FF94" stroke-opacity="0.5" stroke-width="0.5"/>
<line x1="9.00002" y1="321.519" x2="392.391" y2="321.519" stroke="#00FF94" stroke-opacity="0.5" stroke-width="0.5"/>
<line x1="9.00002" y1="303.921" x2="392.391" y2="303.921" stroke="#00FF94" stroke-opacity="0.5" stroke-width="0.5"/>
<line x1="9.00002" y1="286.323" x2="392.391" y2="286.323" stroke="#00FF94" stroke-opacity="0.5" stroke-width="0.5"/>
<line x1="9.00002" y1="374.314" x2="392.391" y2="374.314" stroke="#00FF94" stroke-opacity="0.5" stroke-width="0.5"/>
<line x1="9.00002" y1="356.716" x2="392.391" y2="356.716" stroke="#00FF94" stroke-opacity="0.5" stroke-width="0.5"/>
<line x1="61.5449" y1="374.006" x2="61.5448" y2="5.00006" stroke="#00FF94" stroke-opacity="0.5" stroke-width="0.5"/>
<line x1="43.9466" y1="374.006" x2="43.9466" y2="4.99994" stroke="#00FF94" stroke-opacity="0.5" stroke-width="0.5"/>
<line x1="26.3483" y1="374.006" x2="26.3483" y2="5.00006" stroke="#00FF94" stroke-opacity="0.5" stroke-width="0.5"/>
<line x1="130.681" y1="374.006" x2="130.681" y2="5.00006" stroke="#00FF94" stroke-opacity="0.5" stroke-width="0.5"/>
<line x1="113.083" y1="374.006" x2="113.083" y2="4.99994" stroke="#00FF94" stroke-opacity="0.5" stroke-width="0.5"/>
<line x1="95.4844" y1="374.006" x2="95.4844" y2="5.00006" stroke="#00FF94" stroke-opacity="0.5" stroke-width="0.5"/>
<line x1="77.8861" y1="374.006" x2="77.8861" y2="5.00006" stroke="#00FF94" stroke-opacity="0.5" stroke-width="0.5"/>
<line x1="201.074" y1="374.006" x2="201.074" y2="4.99994" stroke="#00FF94" stroke-opacity="0.5" stroke-width="0.5"/>
<line x1="183.476" y1="374.005" x2="183.476" y2="4.99982" stroke="#00FF94" stroke-opacity="0.5" stroke-width="0.5"/>
<line x1="165.878" y1="374.006" x2="165.878" y2="4.99994" stroke="#00FF94" stroke-opacity="0.5" stroke-width="0.5"/>
<line x1="148.279" y1="374.006" x2="148.279" y2="4.99994" stroke="#00FF94" stroke-opacity="0.5" stroke-width="0.5"/>
<line x1="270.21" y1="374.006" x2="270.21" y2="4.99994" stroke="#00FF94" stroke-opacity="0.5" stroke-width="0.5"/>
<line x1="252.612" y1="374.005" x2="252.612" y2="4.99982" stroke="#00FF94" stroke-opacity="0.5" stroke-width="0.5"/>
<line x1="235.014" y1="374.006" x2="235.014" y2="4.99994" stroke="#00FF94" stroke-opacity="0.5" stroke-width="0.5"/>
<line x1="217.415" y1="374.006" x2="217.415" y2="4.99994" stroke="#00FF94" stroke-opacity="0.5" stroke-width="0.5"/>
<line x1="340.603" y1="374.006" x2="340.603" y2="4.99994" stroke="#00FF94" stroke-opacity="0.5" stroke-width="0.5"/>
<line x1="323.005" y1="374.005" x2="323.005" y2="4.99982" stroke="#00FF94" stroke-opacity="0.5" stroke-width="0.5"/>
<line x1="305.407" y1="374.006" x2="305.407" y2="4.99994" stroke="#00FF94" stroke-opacity="0.5" stroke-width="0.5"/>
<line x1="287.809" y1="374.006" x2="287.808" y2="4.99994" stroke="#00FF94" stroke-opacity="0.5" stroke-width="0.5"/>
<line x1="374.543" y1="374.006" x2="374.543" y2="4.99994" stroke="#00FF94" stroke-opacity="0.5" stroke-width="0.5"/>
<line x1="356.945" y1="374.006" x2="356.945" y2="4.99994" stroke="#00FF94" stroke-opacity="0.5" stroke-width="0.5"/>
</g>
<defs>
<filter id="filter0_d" x="0" y="-0.000244141" width="401.391" height="387.564" filterUnits="userSpaceOnUse" color-interpolation-filters="sRGB">
<feFlood flood-opacity="0" result="BackgroundImageFix"/>
<feColorMatrix in="SourceAlpha" type="matrix" values="0 0 0 0 0 0 0 0 0 0 0 0 0 0 0 0 0 0 127 0"/>
<feOffset dy="4"/>
<feGaussianBlur stdDeviation="4.5"/>
<feColorMatrix type="matrix" values="0 0 0 0 0 0 0 0 0 1 0 0 0 0 0.58 0 0 0 0.39 0"/>
<feBlend mode="normal" in2="BackgroundImageFix" result="effect1_dropShadow"/>
<feBlend mode="normal" in="SourceGraphic" in2="effect1_dropShadow" result="shape"/>
</filter>
</defs>
</svg>
