<svg width="106" height="99" viewBox="0 0 106 99" fill="none" xmlns="http://www.w3.org/2000/svg">
<g filter="url(#filter0_d)">
<path d="M49.0064 43.3987L48.3613 52.3331C49.2843 52.3331 49.684 51.9427 50.1634 51.4739L54.4909 47.4019L63.4579 53.8675C65.1024 54.7699 66.2611 54.2947 66.7047 52.3779L72.5906 25.2228L72.5922 25.2212C73.1139 22.8276 71.7131 21.8916 70.1108 22.4788L35.5137 35.5204C33.1525 36.4228 33.1883 37.7188 35.1123 38.306L43.9574 41.0147L64.5028 28.3572C65.4697 27.7268 66.3488 28.0756 65.6257 28.706L49.0064 43.3987Z" fill="url(#paint0_linear)"/>
</g>
<defs>
<filter id="filter0_d" x="0.703125" y="0.308594" width="105" height="98" filterUnits="userSpaceOnUse" color-interpolation-filters="sRGB">
<feFlood flood-opacity="0" result="BackgroundImageFix"/>
<feColorMatrix in="SourceAlpha" type="matrix" values="0 0 0 0 0 0 0 0 0 0 0 0 0 0 0 0 0 0 127 0"/>
<feOffset dy="11"/>
<feGaussianBlur stdDeviation="16.5"/>
<feColorMatrix type="matrix" values="0 0 0 0 0 0 0 0 0 1 0 0 0 0 0.58 0 0 0 0.33 0"/>
<feBlend mode="normal" in2="BackgroundImageFix" result="effect1_dropShadow"/>
<feBlend mode="normal" in="SourceGraphic" in2="effect1_dropShadow" result="shape"/>
</filter>
<linearGradient id="paint0_linear" x1="53.2031" y1="22.3086" x2="53.2031" y2="54.3086" gradientUnits="userSpaceOnUse">
<stop stop-color="#00FF94"/>
<stop offset="1" stop-color="#10D28C"/>
</linearGradient>
</defs>
</svg>
