<svg width="229" height="221" viewBox="0 0 229 221" fill="none" xmlns="http://www.w3.org/2000/svg">
<g opacity="0.23">
<line x1="0.00012207" y1="31.2305" x2="228.608" y2="31.2305" stroke="#00FF94" stroke-opacity="0.84" stroke-width="0.5"/>
<line x1="0.000244141" y1="20.7371" x2="228.609" y2="20.7371" stroke="#00FF94" stroke-opacity="0.84" stroke-width="0.5"/>
<line x1="0.000244141" y1="10.2437" x2="228.609" y2="10.2437" stroke="#00FF94" stroke-opacity="0.84" stroke-width="0.5"/>
<line y1="73.2046" x2="228.608" y2="73.2046" stroke="#00FF94" stroke-opacity="0.84" stroke-width="0.5"/>
<line x1="0.00012207" y1="62.7111" x2="228.608" y2="62.7111" stroke="#00FF94" stroke-opacity="0.84" stroke-width="0.5"/>
<line x1="0.00012207" y1="52.2175" x2="228.608" y2="52.2175" stroke="#00FF94" stroke-opacity="0.84" stroke-width="0.5"/>
<line x1="0.00012207" y1="41.724" x2="228.608" y2="41.724" stroke="#00FF94" stroke-opacity="0.84" stroke-width="0.5"/>
<line x1="0.00012207" y1="115.179" x2="228.608" y2="115.179" stroke="#00FF94" stroke-opacity="0.84" stroke-width="0.5"/>
<line x1="0.000244141" y1="104.685" x2="228.609" y2="104.685" stroke="#00FF94" stroke-opacity="0.84" stroke-width="0.5"/>
<line x1="0.000244141" y1="94.1917" x2="228.609" y2="94.1917" stroke="#00FF94" stroke-opacity="0.84" stroke-width="0.5"/>
<line x1="0.000244141" y1="83.698" x2="228.609" y2="83.698" stroke="#00FF94" stroke-opacity="0.84" stroke-width="0.5"/>
<line y1="157.153" x2="228.608" y2="157.153" stroke="#00FF94" stroke-opacity="0.84" stroke-width="0.5"/>
<line x1="0.00012207" y1="146.659" x2="228.608" y2="146.659" stroke="#00FF94" stroke-opacity="0.84" stroke-width="0.5"/>
<line x1="0.00012207" y1="136.166" x2="228.608" y2="136.166" stroke="#00FF94" stroke-opacity="0.84" stroke-width="0.5"/>
<line x1="0.00012207" y1="125.672" x2="228.608" y2="125.672" stroke="#00FF94" stroke-opacity="0.84" stroke-width="0.5"/>
<line x1="0.00012207" y1="199.126" x2="228.608" y2="199.126" stroke="#00FF94" stroke-opacity="0.84" stroke-width="0.5"/>
<line x1="0.000244141" y1="188.633" x2="228.609" y2="188.633" stroke="#00FF94" stroke-opacity="0.84" stroke-width="0.5"/>
<line x1="0.000244141" y1="178.14" x2="228.609" y2="178.14" stroke="#00FF94" stroke-opacity="0.84" stroke-width="0.5"/>
<line x1="0.000244141" y1="167.646" x2="228.609" y2="167.646" stroke="#00FF94" stroke-opacity="0.84" stroke-width="0.5"/>
<line y1="220.114" x2="228.608" y2="220.114" stroke="#00FF94" stroke-opacity="0.84" stroke-width="0.5"/>
<line x1="0.00012207" y1="209.62" x2="228.608" y2="209.62" stroke="#00FF94" stroke-opacity="0.84" stroke-width="0.5"/>
<line x1="31.2302" y1="220.031" x2="31.2302" y2="0.000167858" stroke="#00FF94" stroke-opacity="0.84" stroke-width="0.5"/>
<line x1="20.7363" y1="220.031" x2="20.7363" y2="0.000167858" stroke="#00FF94" stroke-opacity="0.84" stroke-width="0.5"/>
<line x1="10.2433" y1="220.031" x2="10.2433" y2="0.000167858" stroke="#00FF94" stroke-opacity="0.84" stroke-width="0.5"/>
<line x1="72.4548" y1="220.031" x2="72.4548" y2="0.000167858" stroke="#00FF94" stroke-opacity="0.84" stroke-width="0.5"/>
<line x1="61.9607" y1="220.031" x2="61.9607" y2="0.000167858" stroke="#00FF94" stroke-opacity="0.84" stroke-width="0.5"/>
<line x1="51.4675" y1="220.031" x2="51.4675" y2="0.000167858" stroke="#00FF94" stroke-opacity="0.84" stroke-width="0.5"/>
<line x1="40.9739" y1="220.031" x2="40.9739" y2="0.000167858" stroke="#00FF94" stroke-opacity="0.84" stroke-width="0.5"/>
<line x1="114.428" y1="220.031" x2="114.428" y2="0.000167857" stroke="#00FF94" stroke-opacity="0.84" stroke-width="0.5"/>
<line x1="103.935" y1="220.031" x2="103.935" y2="0.000167857" stroke="#00FF94" stroke-opacity="0.84" stroke-width="0.5"/>
<line x1="93.4413" y1="220.031" x2="93.4413" y2="0.000167857" stroke="#00FF94" stroke-opacity="0.84" stroke-width="0.5"/>
<line x1="82.9479" y1="220.031" x2="82.9479" y2="0.000167857" stroke="#00FF94" stroke-opacity="0.84" stroke-width="0.5"/>
<line x1="155.653" y1="220.031" x2="155.653" y2="0.000167857" stroke="#00FF94" stroke-opacity="0.84" stroke-width="0.5"/>
<line x1="145.159" y1="220.031" x2="145.159" y2="0.000167857" stroke="#00FF94" stroke-opacity="0.84" stroke-width="0.5"/>
<line x1="134.666" y1="220.031" x2="134.666" y2="0.000167857" stroke="#00FF94" stroke-opacity="0.84" stroke-width="0.5"/>
<line x1="124.172" y1="220.031" x2="124.172" y2="0.000167857" stroke="#00FF94" stroke-opacity="0.84" stroke-width="0.5"/>
<line x1="197.627" y1="220.031" x2="197.627" y2="4.5787e-05" stroke="#00FF94" stroke-opacity="0.84" stroke-width="0.5"/>
<line x1="187.133" y1="220.031" x2="187.133" y2="4.5787e-05" stroke="#00FF94" stroke-opacity="0.84" stroke-width="0.5"/>
<line x1="176.64" y1="220.031" x2="176.64" y2="4.5787e-05" stroke="#00FF94" stroke-opacity="0.84" stroke-width="0.5"/>
<line x1="166.146" y1="220.031" x2="166.146" y2="4.5787e-05" stroke="#00FF94" stroke-opacity="0.84" stroke-width="0.5"/>
<line x1="217.864" y1="220.031" x2="217.864" y2="4.5787e-05" stroke="#00FF94" stroke-opacity="0.84" stroke-width="0.5"/>
<line x1="207.371" y1="220.031" x2="207.371" y2="4.5787e-05" stroke="#00FF94" stroke-opacity="0.84" stroke-width="0.5"/>
</g>
</svg>
